<?xml version="1.0" standalone="no"?>
<!DOCTYPE svg PUBLIC "-//W3C//DTD SVG 20010904//EN"
 "http://www.w3.org/TR/2001/REC-SVG-20010904/DTD/svg10.dtd">
<svg version="1.0" xmlns="http://www.w3.org/2000/svg"
 width="241.000000pt" height="241.000000pt" viewBox="0 0 241.000000 241.000000"
 preserveAspectRatio="xMidYMid meet">
<metadata>
Created by potrace 1.14, written by Peter Selinger 2001-2017
</metadata>
<g transform="translate(0.000000,241.000000) scale(0.100000,-0.100000)"
fill="#000000" stroke="none">
<path d="M165 1283 c-50 -86 -107 -187 -127 -223 l-38 -67 88 1 87 1 65 117
c36 65 68 118 71 118 3 0 18 -24 34 -52 15 -29 36 -65 47 -80 10 -14 18 -30
18 -36 0 -5 -28 -10 -62 -10 -35 0 -71 -1 -81 -1 -19 -1 -40 -42 -26 -52 10
-6 259 -2 266 4 5 6 -189 337 -198 337 -4 0 -39 -58 -78 -128 -86 -155 -93
-165 -114 -161 -14 3 0 34 74 163 50 87 92 164 95 170 2 6 -4 21 -14 33 -17
23 -18 21 -107 -134z"/>
<path d="M482 1363 c-18 -4 -21 -9 -16 -25 4 -14 3 -18 -5 -13 -7 4 1 -16 16
-43 28 -50 45 -60 38 -22 -5 29 2 25 20 -10 19 -37 28 -37 45 -5 19 36 26 31
26 -17 -1 -37 2 -43 22 -46 26 -4 24 -10 26 95 2 78 1 82 -21 86 -22 4 -50
-19 -67 -56 -5 -9 -8 -9 -12 1 -15 32 -50 58 -72 55z"/>
<path d="M743 1346 c-17 -14 -33 -38 -36 -53 -7 -35 15 -88 41 -102 26 -14 78
-14 104 0 31 16 49 70 38 110 -11 38 -32 55 -82 64 -28 5 -40 2 -65 -19z m93
-55 c14 -28 9 -48 -17 -62 -42 -22 -80 31 -52 71 19 27 54 23 69 -9z"/>
<path d="M948 1350 c-2 -8 -4 -49 -3 -90 0 -73 1 -75 25 -75 23 0 25 3 24 48
0 26 2 44 6 40 4 -5 21 -27 39 -51 24 -31 40 -42 55 -40 19 3 21 10 21 78 1
87 -7 110 -34 103 -15 -4 -18 -13 -17 -49 1 -24 1 -44 0 -44 -1 0 -18 22 -37
48 -36 48 -72 63 -79 32z"/>
<path d="M1160 1343 c0 -18 6 -23 25 -23 24 0 25 -2 25 -70 0 -70 0 -70 28
-70 27 0 27 0 26 70 -1 69 -1 70 25 70 20 0 27 5 28 20 1 11 -1 20 -5 21 -4 0
-40 2 -79 3 -70 1 -73 0 -73 -21z"/>
<path d="M1370 1360 c-7 -4 -10 -38 -8 -91 3 -78 4 -84 26 -87 19 -3 22 1 23
32 3 131 1 153 -16 153 -8 0 -19 -3 -25 -7z"/>
<path d="M1513 1357 c-29 -13 -51 -61 -47 -100 5 -41 45 -77 87 -77 32 0 77
23 77 39 0 15 -29 21 -54 11 -38 -14 -61 11 -57 62 1 21 46 35 64 20 8 -7 18
-6 32 4 18 13 18 15 3 31 -20 19 -74 24 -105 10z"/>
<path d="M1684 1361 c-2 -2 -4 -44 -4 -93 l0 -88 68 0 c76 0 86 4 72 31 -8 14
-19 17 -50 14 -33 -3 -40 -1 -40 14 0 14 7 17 37 14 38 -3 59 13 43 32 -5 6
-25 10 -45 9 -25 -2 -35 1 -35 11 0 11 12 15 44 15 35 0 45 4 49 20 3 11 0 21
-6 21 -35 4 -129 3 -133 0z"/>
<path d="M1893 1362 c-20 -3 -21 -8 -20 -93 l1 -89 68 0 c65 0 68 1 68 23 0
20 -5 24 -27 22 -50 -3 -62 10 -59 64 2 62 -4 77 -31 73z"/>
<path d="M2075 1360 c-18 -6 -20 -16 -21 -94 l0 -86 68 0 c65 0 68 1 68 24 0
17 -6 23 -22 23 -71 1 -67 -2 -64 63 3 69 -1 80 -29 70z"/>
<path d="M2263 1350 c-56 -34 -54 -132 3 -159 44 -20 83 -13 115 18 47 48 38
116 -21 146 -38 20 -58 19 -97 -5z m87 -50 c13 -23 6 -52 -15 -70 -12 -10 -20
-9 -40 4 -27 18 -31 36 -15 67 14 25 56 25 70 -1z"/>
<path d="M894 1076 c-3 -8 -4 -25 -2 -38 3 -17 5 -13 9 15 5 38 2 47 -7 23z"/>
<path d="M966 1082 c-3 -5 1 -9 9 -9 8 0 12 4 9 9 -3 4 -7 8 -9 8 -2 0 -6 -4
-9 -8z"/>
<path d="M1058 1060 c-3 -16 -1 -30 4 -30 4 0 8 14 8 30 0 17 -2 30 -4 30 -2
0 -6 -13 -8 -30z"/>
<path d="M1536 1080 c7 -8 14 -24 17 -35 4 -19 5 -19 6 1 0 12 -7 28 -16 35
-16 12 -17 12 -7 -1z"/>
<path d="M1972 1078 c-14 -14 -16 -44 -3 -52 5 -4 7 3 4 14 -3 11 0 27 7 35
15 18 9 20 -8 3z"/>
<path d="M2167 1072 c-11 -12 -13 -22 -6 -35 13 -22 33 -22 50 0 13 15 12 15
-9 2 -20 -12 -24 -12 -32 1 -14 22 7 42 31 29 10 -5 19 -7 19 -5 0 3 -8 10
-19 15 -14 8 -22 6 -34 -7z"/>
<path d="M770 1050 c0 -16 2 -30 4 -30 2 0 6 14 8 30 3 17 1 30 -4 30 -4 0 -8
-13 -8 -30z"/>
<path d="M1088 1073 c9 -3 10 -9 3 -17 -6 -8 -6 -17 1 -26 8 -12 9 -12 4 2 -3
10 -1 20 5 23 12 8 2 25 -14 24 -8 0 -8 -2 1 -6z"/>
<path d="M1177 1050 c14 -16 27 -30 28 -30 0 0 1 10 2 23 0 12 -1 16 -4 9 -4
-10 -9 -8 -20 7 -8 12 -18 21 -24 21 -5 0 3 -13 18 -30z"/>
<path d="M1270 1060 c-6 -11 -7 -20 -2 -20 6 0 12 9 15 20 3 11 3 20 1 20 -2
0 -8 -9 -14 -20z"/>
<path d="M1358 1073 c6 -2 18 -2 25 0 6 3 1 5 -13 5 -14 0 -19 -2 -12 -5z"/>
<path d="M1441 1064 c0 -11 3 -14 6 -6 3 7 2 16 -1 19 -3 4 -6 -2 -5 -13z"/>
<path d="M1606 1072 c-3 -6 -2 -13 4 -17 5 -3 10 -3 10 1 0 3 9 -4 20 -17 l19
-24 -1 35 c0 23 -2 27 -5 12 l-4 -22 -18 21 c-11 14 -20 18 -25 11z"/>
<path d="M1719 1059 c-10 -20 -9 -21 9 -17 12 3 23 2 26 -3 2 -5 3 -4 2 3 -2
7 -9 12 -16 10 -8 -2 -10 3 -7 13 9 22 -1 18 -14 -6z"/>
<path d="M1811 1053 c-1 -28 2 -33 22 -32 15 1 17 3 5 6 -9 2 -19 16 -21 31
-4 24 -4 24 -6 -5z"/>
<path d="M2062 1050 c0 -19 2 -27 5 -17 2 9 2 25 0 35 -3 9 -5 1 -5 -18z"/>
<path d="M2100 1066 c0 -8 -5 -16 -11 -18 -8 -3 -7 -7 2 -15 11 -9 14 -5 16
18 1 16 0 29 -2 29 -3 0 -5 -6 -5 -14z"/>
<path d="M2362 1056 c2 -16 7 -22 16 -18 10 4 11 7 2 12 -7 4 -9 13 -6 19 4 6
2 11 -3 11 -6 0 -10 -11 -9 -24z"/>
<path d="M2396 1067 c3 -10 9 -15 12 -12 3 3 0 11 -7 18 -10 9 -11 8 -5 -6z"/>
<path d="M2305 1051 c-7 -24 -15 -26 -35 -8 -12 10 -12 9 -1 -5 18 -24 38 -22
44 4 8 29 1 36 -8 9z"/>
<path d="M807 1038 c20 -22 18 -22 20 1 1 14 -4 19 -17 18 -18 -1 -18 -3 -3
-19z"/>
<path d="M960 1050 c0 -5 7 -7 15 -4 8 4 15 8 15 10 0 2 -7 4 -15 4 -8 0 -15
-4 -15 -10z"/>
<path d="M1151 1044 c0 -11 3 -14 6 -6 3 7 2 16 -1 19 -3 4 -6 -2 -5 -13z"/>
<path d="M1290 1055 c0 -5 5 -17 10 -25 5 -8 10 -10 10 -5 0 6 -5 17 -10 25
-5 8 -10 11 -10 5z"/>
<path d="M1994 1040 c0 -13 4 -16 10 -10 7 7 7 13 0 20 -6 6 -10 3 -10 -10z"/>
<path d="M1503 1040 c2 -8 12 -16 23 -17 13 -2 15 -1 4 4 -8 3 -19 11 -23 17
-6 7 -7 6 -4 -4z"/>
<path d="M973 1023 c9 -2 23 -2 30 0 6 3 -1 5 -18 5 -16 0 -22 -2 -12 -5z"/>
</g>
</svg>
